<svg width="358" height="42" viewBox="0 0 358 42" fill="none" xmlns="http://www.w3.org/2000/svg">
<rect width="358" height="42" rx="21" fill="#50A896" fill-opacity="0.2"/>
<path d="M16.5261 28.488V27.192C14.1901 27 12.7181 25.624 12.7181 23.56H15.2941C15.2941 24.328 15.7261 24.792 16.5261 24.936V22.168L16.0941 22.088C13.9501 21.656 12.8941 20.488 12.8941 18.6C12.8941 16.664 14.3661 15.24 16.5261 14.984V13.656H17.9981V14.984C20.0941 15.24 21.3901 16.568 21.3901 18.584H18.8941C18.8941 17.928 18.5741 17.48 17.9981 17.272V20.104L18.4621 20.2C20.6381 20.648 21.5821 21.624 21.5821 23.432C21.5821 25.448 20.1901 26.84 17.9981 27.144V28.488H16.5261ZM15.4221 18.504C15.4221 19.192 15.7421 19.592 16.5261 19.8V17.24C15.8221 17.4 15.4221 17.848 15.4221 18.504ZM19.0701 23.688C19.0701 23 18.7021 22.616 17.9981 22.472V24.872C18.6701 24.68 19.0701 24.264 19.0701 23.688ZM31.5401 24.904H30.0841V27H27.6361V24.904H21.7481V22.632L26.8521 15.16H30.0841V22.632H31.5401V24.904ZM24.5001 22.632H27.6361V18.024L24.5001 22.632ZM31.8798 21.112C31.8798 17.448 33.9598 14.936 37.0478 14.936C40.1358 14.936 42.2158 17.448 42.2158 21.112C42.2158 24.776 40.2958 27.208 37.0478 27.208C33.7998 27.208 31.8798 24.776 31.8798 21.112ZM34.4398 21.112C34.4398 23.656 35.3998 24.936 37.0478 24.936C38.6958 24.936 39.6558 23.656 39.6558 21.112C39.6558 18.488 38.6958 17.208 37.0478 17.208C35.3998 17.208 34.4398 18.488 34.4398 21.112ZM42.7241 21.112C42.7241 17.448 44.8041 14.936 47.8921 14.936C50.9801 14.936 53.0601 17.448 53.0601 21.112C53.0601 24.776 51.1401 27.208 47.8921 27.208C44.6441 27.208 42.7241 24.776 42.7241 21.112ZM45.2841 21.112C45.2841 23.656 46.2441 24.936 47.8921 24.936C49.5401 24.936 50.5001 23.656 50.5001 21.112C50.5001 18.488 49.5401 17.208 47.8921 17.208C46.2441 17.208 45.2841 18.488 45.2841 21.112ZM68.7629 21.064C68.7629 24.68 66.3789 27.192 62.9389 27.192C59.5149 27.192 57.1629 24.696 57.1629 21.08C57.1629 17.464 59.5309 14.952 62.9549 14.952C66.3949 14.952 68.7629 17.448 68.7629 21.064ZM66.0269 21.064C66.0269 18.808 64.8749 17.448 62.9709 17.448C61.0509 17.448 59.8989 18.808 59.8989 21.064C59.8989 23.336 61.0509 24.696 62.9709 24.696C64.8749 24.696 66.0269 23.304 66.0269 21.064ZM76.6809 22.376H72.5209V27H69.9289V15.16H77.4649V17.56H72.5209V20.04H76.6809V22.376ZM85.3534 22.376H81.1934V27H78.6014V15.16H86.1374V17.56H81.1934V20.04H85.3534V22.376Z" fill="#254D45"/>
<path d="M98.2095 16.84H95.7775V15.432H99.7135V27H98.2095V16.84ZM109.27 26.984L101.462 27V25.8L105.19 22.584C107.062 20.968 107.59 20.184 107.59 18.952C107.59 17.496 106.758 16.632 105.366 16.632C103.942 16.632 103.014 17.672 102.982 19.32H101.414C101.462 16.84 103.03 15.224 105.382 15.224C107.702 15.224 109.19 16.632 109.19 18.856C109.19 20.504 108.374 21.672 106.326 23.448L103.926 25.528H109.27V26.984ZM116.544 27H115.008V15.432H116.544L120.528 25.16L124.512 15.432H126.08V27H124.544V22.424C124.544 20.264 124.56 19.48 124.64 18.664L121.264 27H119.792L116.432 18.696C116.512 19.256 116.544 20.44 116.544 22.056V27ZM138.885 21.208C138.885 24.728 136.581 27.192 133.301 27.192C130.037 27.192 127.765 24.728 127.765 21.208C127.765 17.704 130.053 15.224 133.317 15.224C136.597 15.224 138.885 17.688 138.885 21.208ZM137.237 21.208C137.237 18.52 135.669 16.744 133.317 16.744C130.965 16.744 129.413 18.52 129.413 21.208C129.413 23.896 130.965 25.688 133.317 25.688C135.669 25.688 137.237 23.88 137.237 21.208ZM142.139 27H140.571V15.432H142.139L148.059 24.376V15.432H149.627V27H148.059L142.139 18.056V27ZM150.881 16.872V15.432H159.409V16.872H155.937V27H154.369V16.872H150.881ZM162.233 27H160.665V15.432H162.233V20.408H167.961V15.432H169.529V27H167.961V21.864H162.233V27ZM171.22 18.552C171.22 16.568 172.82 15.224 175.204 15.224C177.412 15.224 178.836 16.456 178.964 18.456H177.38C177.3 17.304 176.484 16.632 175.188 16.632C173.732 16.632 172.788 17.368 172.788 18.504C172.788 19.432 173.316 19.992 174.404 20.248L176.308 20.696C178.196 21.128 179.156 22.152 179.156 23.784C179.156 25.864 177.54 27.192 175.076 27.192C172.724 27.192 171.156 25.96 171.06 23.976H172.66C172.692 25.08 173.62 25.784 175.076 25.784C176.612 25.784 177.588 25.064 177.588 23.912C177.588 23 177.092 22.424 175.988 22.168L174.084 21.736C172.196 21.304 171.22 20.216 171.22 18.552Z" fill="#254D45"/>
<rect x="208" y="6" width="144" height="30" rx="15" fill="#50A896"/>
<path d="M239.824 27H237.232V15.16H239.824V19.832H244.4V15.16H246.992V27H244.4V22.232H239.824V27ZM260.395 21.064C260.395 24.68 258.011 27.192 254.571 27.192C251.147 27.192 248.795 24.696 248.795 21.08C248.795 17.464 251.163 14.952 254.587 14.952C258.027 14.952 260.395 17.448 260.395 21.064ZM257.659 21.064C257.659 18.808 256.507 17.448 254.603 17.448C252.683 17.448 251.531 18.808 251.531 21.064C251.531 23.336 252.683 24.696 254.603 24.696C256.507 24.696 257.659 23.304 257.659 21.064ZM264.793 15.16V24.6H269.465V27H262.201V15.16H264.793ZM273.683 15.16V27H271.091V15.16H273.683ZM280.794 27H276.154V15.16H280.634C284.106 15.16 286.522 17.592 286.522 21.112C286.522 24.568 284.17 27 280.794 27ZM280.378 17.56H278.746V24.6H280.538C282.586 24.6 283.786 23.304 283.786 21.112C283.786 18.872 282.522 17.56 280.378 17.56ZM289.301 27H286.597L290.821 15.16H293.349L297.557 27H294.805L293.973 24.504H290.149L289.301 27ZM291.749 19.8L290.901 22.328H293.237L292.389 19.8C292.261 19.4 292.117 18.936 292.069 18.648C292.021 18.92 291.893 19.368 291.749 19.8ZM300.582 22.504L296.582 15.16H299.478L301.462 19C301.654 19.368 301.782 19.656 301.91 19.96C302.054 19.672 302.182 19.368 302.374 18.984L304.358 15.16H307.174L303.174 22.504V27H300.582V22.504ZM310.56 17.48H307.872V15.16H313.04V27H310.56V17.48ZM323.513 26.968L315.065 27V25.08L318.969 21.832C320.233 20.792 320.761 20.056 320.761 19.08C320.761 17.88 320.169 17.24 319.113 17.24C318.009 17.24 317.369 17.992 317.369 19.32H314.793C314.793 16.664 316.489 14.936 319.097 14.936C321.801 14.936 323.417 16.392 323.417 18.92C323.417 20.536 322.441 21.848 320.969 23.08L319.193 24.568H323.513V26.968Z" fill="white"/>
</svg>
