<svg width="358" height="42" viewBox="0 0 358 42" fill="none" xmlns="http://www.w3.org/2000/svg">
<rect width="358" height="42" rx="21" fill="#50A896" fill-opacity="0.2"/>
<path d="M16.4402 28.488V27.192C14.1042 27 12.6322 25.624 12.6322 23.56H15.2082C15.2082 24.328 15.6402 24.792 16.4402 24.936V22.168L16.0082 22.088C13.8642 21.656 12.8082 20.488 12.8082 18.6C12.8082 16.664 14.2802 15.24 16.4402 14.984V13.656H17.9122V14.984C20.0082 15.24 21.3042 16.568 21.3042 18.584H18.8082C18.8082 17.928 18.4882 17.48 17.9122 17.272V20.104L18.3762 20.2C20.5522 20.648 21.4962 21.624 21.4962 23.432C21.4962 25.448 20.1042 26.84 17.9122 27.144V28.488H16.4402ZM15.3362 18.504C15.3362 19.192 15.6562 19.592 16.4402 19.8V17.24C15.7362 17.4 15.3362 17.848 15.3362 18.504ZM18.9842 23.688C18.9842 23 18.6162 22.616 17.9122 22.472V24.872C18.5842 24.68 18.9842 24.264 18.9842 23.688ZM30.5422 26.968L22.0942 27V25.08L25.9982 21.832C27.2622 20.792 27.7902 20.056 27.7902 19.08C27.7902 17.88 27.1982 17.24 26.1422 17.24C25.0382 17.24 24.3982 17.992 24.3982 19.32H21.8222C21.8222 16.664 23.5182 14.936 26.1262 14.936C28.8302 14.936 30.4462 16.392 30.4462 18.92C30.4462 20.536 29.4702 21.848 27.9982 23.08L26.2222 24.568H30.5422V26.968ZM30.9657 21.112C30.9657 17.448 33.0457 14.936 36.1337 14.936C39.2217 14.936 41.3017 17.448 41.3017 21.112C41.3017 24.776 39.3817 27.208 36.1337 27.208C32.8857 27.208 30.9657 24.776 30.9657 21.112ZM33.5257 21.112C33.5257 23.656 34.4857 24.936 36.1337 24.936C37.7817 24.936 38.7417 23.656 38.7417 21.112C38.7417 18.488 37.7817 17.208 36.1337 17.208C34.4857 17.208 33.5257 18.488 33.5257 21.112ZM41.8101 21.112C41.8101 17.448 43.8901 14.936 46.9781 14.936C50.0661 14.936 52.1461 17.448 52.1461 21.112C52.1461 24.776 50.2261 27.208 46.9781 27.208C43.7301 27.208 41.8101 24.776 41.8101 21.112ZM44.3701 21.112C44.3701 23.656 45.3301 24.936 46.9781 24.936C48.6261 24.936 49.5861 23.656 49.5861 21.112C49.5861 18.488 48.6261 17.208 46.9781 17.208C45.3301 17.208 44.3701 18.488 44.3701 21.112ZM67.8488 21.064C67.8488 24.68 65.4648 27.192 62.0248 27.192C58.6008 27.192 56.2488 24.696 56.2488 21.08C56.2488 17.464 58.6168 14.952 62.0408 14.952C65.4808 14.952 67.8488 17.448 67.8488 21.064ZM65.1128 21.064C65.1128 18.808 63.9608 17.448 62.0568 17.448C60.1368 17.448 58.9848 18.808 58.9848 21.064C58.9848 23.336 60.1368 24.696 62.0568 24.696C63.9608 24.696 65.1128 23.304 65.1128 21.064ZM75.7668 22.376H71.6068V27H69.0148V15.16H76.5508V17.56H71.6068V20.04H75.7668V22.376ZM84.4393 22.376H80.2793V27H77.6873V15.16H85.2233V17.56H80.2793V20.04H84.4393V22.376Z" fill="#254D45"/>
<path d="M96.4385 19.096L99.1425 15.432H100.966L98.0705 19.272C98.4705 19.112 98.8865 19.032 99.2865 19.032C101.686 19.032 103.302 20.76 103.302 23.048C103.302 25.464 101.478 27.192 99.0945 27.192C96.6945 27.192 94.8385 25.384 94.8385 23.048C94.8385 21.672 95.2545 20.712 96.4385 19.096ZM96.4385 23.064C96.4385 24.648 97.5265 25.784 99.0945 25.784C100.63 25.784 101.718 24.648 101.718 23.064C101.718 21.48 100.63 20.36 99.0945 20.36C97.5265 20.36 96.4385 21.48 96.4385 23.064ZM110.579 27H109.043V15.432H110.579L114.563 25.16L118.547 15.432H120.115V27H118.579V22.424C118.579 20.264 118.595 19.48 118.675 18.664L115.299 27H113.827L110.467 18.696C110.547 19.256 110.579 20.44 110.579 22.056V27ZM132.92 21.208C132.92 24.728 130.616 27.192 127.336 27.192C124.072 27.192 121.8 24.728 121.8 21.208C121.8 17.704 124.088 15.224 127.352 15.224C130.632 15.224 132.92 17.688 132.92 21.208ZM131.272 21.208C131.272 18.52 129.704 16.744 127.352 16.744C125 16.744 123.448 18.52 123.448 21.208C123.448 23.896 125 25.688 127.352 25.688C129.704 25.688 131.272 23.88 131.272 21.208ZM136.174 27H134.606V15.432H136.174L142.094 24.376V15.432H143.662V27H142.094L136.174 18.056V27ZM144.916 16.872V15.432H153.444V16.872H149.972V27H148.404V16.872H144.916ZM156.268 27H154.7V15.432H156.268V20.408H161.996V15.432H163.564V27H161.996V21.864H156.268V27ZM165.255 18.552C165.255 16.568 166.855 15.224 169.239 15.224C171.447 15.224 172.871 16.456 172.999 18.456H171.415C171.335 17.304 170.519 16.632 169.223 16.632C167.767 16.632 166.823 17.368 166.823 18.504C166.823 19.432 167.351 19.992 168.439 20.248L170.343 20.696C172.231 21.128 173.191 22.152 173.191 23.784C173.191 25.864 171.575 27.192 169.111 27.192C166.759 27.192 165.191 25.96 165.095 23.976H166.695C166.727 25.08 167.655 25.784 169.111 25.784C170.647 25.784 171.623 25.064 171.623 23.912C171.623 23 171.127 22.424 170.023 22.168L168.119 21.736C166.231 21.304 165.255 20.216 165.255 18.552Z" fill="#254D45"/>
<rect x="214" y="6" width="138" height="30" rx="15" fill="#50A896"/>
<path d="M246.121 27H243.529V15.16H246.121V19.832H250.697V15.16H253.289V27H250.697V22.232H246.121V27ZM266.692 21.064C266.692 24.68 264.308 27.192 260.868 27.192C257.444 27.192 255.092 24.696 255.092 21.08C255.092 17.464 257.46 14.952 260.884 14.952C264.324 14.952 266.692 17.448 266.692 21.064ZM263.956 21.064C263.956 18.808 262.804 17.448 260.9 17.448C258.98 17.448 257.828 18.808 257.828 21.064C257.828 23.336 258.98 24.696 260.9 24.696C262.804 24.696 263.956 23.304 263.956 21.064ZM271.09 15.16V24.6H275.762V27H268.498V15.16H271.09ZM279.98 15.16V27H277.388V15.16H279.98ZM287.091 27H282.451V15.16H286.931C290.403 15.16 292.819 17.592 292.819 21.112C292.819 24.568 290.467 27 287.091 27ZM286.675 17.56H285.043V24.6H286.835C288.883 24.6 290.083 23.304 290.083 21.112C290.083 18.872 288.819 17.56 286.675 17.56ZM295.598 27H292.894L297.118 15.16H299.646L303.854 27H301.102L300.27 24.504H296.446L295.598 27ZM298.046 19.8L297.198 22.328H299.534L298.686 19.8C298.558 19.4 298.414 18.936 298.366 18.648C298.318 18.92 298.19 19.368 298.046 19.8ZM306.879 22.504L302.879 15.16H305.775L307.759 19C307.951 19.368 308.079 19.656 308.207 19.96C308.351 19.672 308.479 19.368 308.671 18.984L310.655 15.16H313.471L309.471 22.504V27H306.879V22.504ZM316.073 18.344L318.393 15.16H321.353L318.649 18.792C318.809 18.76 318.969 18.744 319.129 18.744C321.561 18.744 323.225 20.424 323.225 22.856C323.225 25.448 321.321 27.208 318.697 27.208C316.041 27.208 314.105 25.32 314.105 22.84C314.105 21.384 314.633 20.312 316.073 18.344ZM316.761 22.872C316.761 24.088 317.545 24.92 318.697 24.92C319.817 24.92 320.601 24.088 320.601 22.872C320.601 21.656 319.833 20.84 318.697 20.84C317.529 20.84 316.761 21.656 316.761 22.872Z" fill="white"/>
</svg>
