<svg width="332" height="224" viewBox="0 0 332 224" fill="none" xmlns="http://www.w3.org/2000/svg">
<rect x="332" y="223.688" width="332" height="223.688" rx="11" transform="rotate(180 332 223.688)" fill="#89C0B4"/>
<g opacity="0.7">
<path d="M87.2412 189.273H207.266C228.321 189.273 245.308 172.769 245.308 152.311C245.308 131.853 228.321 115.348 207.266 115.348H87.2412V189.273Z" fill="#639D92"/>
<path d="M207.264 109.616C228.274 109.616 245.307 93.0678 245.307 72.6539C245.307 52.2401 228.274 35.6914 207.264 35.6914C186.256 35.6914 169.224 52.2401 169.224 72.6539C169.224 93.0678 186.256 109.616 207.264 109.616Z" fill="#E9FF86"/>
<path d="M87.2412 72.6539C87.2412 93.1118 104.329 109.616 125.282 109.616V35.6914C104.228 35.6914 87.2412 52.1961 87.2412 72.6539Z" fill="#639D92"/>
<path d="M128.233 72.6539C128.233 93.1118 145.322 109.616 166.274 109.616V35.6914C145.219 35.6914 128.233 52.1961 128.233 72.6539Z" fill="#639D92"/>
</g>
</svg>
