<svg width="156" height="223" viewBox="0 0 156 223" fill="none" xmlns="http://www.w3.org/2000/svg">
<g clip-path="url(#clip0_50_452)">
<g clip-path="url(#clip1_50_452)">
<g clip-path="url(#clip2_50_452)">
<path d="M156 -0.00439453H0V222.401H156V-0.00439453Z" fill="#E9FF86"/>
<path d="M99.2401 109.565C110.126 109.565 118.951 100.74 118.951 89.8539C118.951 78.9681 110.126 70.1431 99.2401 70.1431C88.3544 70.1431 79.5293 78.9681 79.5293 89.8539C79.5293 100.74 88.3544 109.565 99.2401 109.565Z" fill="#50A896"/>
<path d="M99.2401 152.254C110.126 152.254 118.951 143.429 118.951 132.543C118.951 121.657 110.126 112.832 99.2401 112.832C88.3544 112.832 79.5293 121.657 79.5293 132.543C79.5293 143.429 88.3544 152.254 99.2401 152.254Z" fill="#D3DECE"/>
<path d="M56.7612 152.254C67.647 152.254 76.472 143.429 76.472 132.543C76.472 121.657 67.647 112.832 56.7612 112.832C45.8751 112.832 37.0503 121.657 37.0503 132.543C37.0503 143.429 45.8751 152.254 56.7612 152.254Z" fill="#50A896"/>
</g>
</g>
</g>
<defs>
<clipPath id="clip0_50_452">
<rect width="156" height="222.396" rx="8" fill="white"/>
</clipPath>
<clipPath id="clip1_50_452">
<rect width="156" height="222.396" fill="white"/>
</clipPath>
<clipPath id="clip2_50_452">
<rect width="156" height="222.405" fill="white" transform="translate(0 -0.00439453)"/>
</clipPath>
</defs>
</svg>
