<svg viewBox="0 0 358 137" fill="none" xmlns="http://www.w3.org/2000/svg" x="0" y="0"><g id="Frame 3">
<g id="Black Friday / Cyber Monday">
<path d="M2.772,34v-26.64h11.088c5.364,0 8.604,2.808 8.604,7.38c0,2.844 -1.296,4.932 -3.708,5.976c2.628,0.864 4.032,2.916 4.032,5.94c0,4.716 -3.168,7.344 -8.928,7.344zM13.248,12.472h-4.644v5.796h4.644c2.088,0 3.24,-1.044 3.24,-2.952c0,-1.872 -1.116,-2.844 -3.24,-2.844zM13.536,23.164h-4.932v5.724h4.932c2.16,0 3.276,-0.972 3.276,-2.952c0,-1.8 -1.152,-2.772 -3.276,-2.772zM30.4934,34h-5.544v-27.144h5.544zM39.0085,34.468c-3.816,0 -6.192,-2.232 -6.192,-5.76c0,-3.312 2.34,-5.364 6.66,-5.688l5.04,-0.396v-0.288c0,-1.764 -1.08,-2.7 -3.06,-2.7c-2.34,0 -3.6,0.9 -3.6,2.52h-4.608c0,-4.068 3.348,-6.732 8.496,-6.732c5.22,0 8.172,2.916 8.172,8.064v10.512h-4.896l-0.36,-2.376c-0.576,1.656 -2.952,2.844 -5.652,2.844zM40.9525,30.364c2.124,0 3.6,-1.044 3.6,-3.096v-0.972l-2.808,0.252c-2.412,0.216 -3.276,0.756 -3.276,1.908c0,1.296 0.792,1.908 2.484,1.908zM51.8408,24.928c0,-5.544 3.816,-9.504 9.216,-9.504c5.328,0 8.856,2.916 9.216,7.632h-5.58c-0.396,-1.8 -1.512,-2.664 -3.42,-2.664c-2.34,0 -3.852,1.764 -3.852,4.536c0,2.88 1.404,4.572 3.78,4.572c1.944,0 3.132,-0.9 3.492,-2.664h5.58c-0.36,4.536 -4.032,7.632 -9.072,7.632c-5.688,0 -9.36,-3.78 -9.36,-9.54zM77.7729,34h-5.544v-27.144h5.544v15.624l5.832,-6.48h6.948l-6.768,7.128l6.552,10.872h-6.408l-4.032,-6.732l-2.124,2.232zM116.074,23.596h-9.36v10.404h-5.832v-26.64h16.956v5.4h-11.124v5.58h9.36zM131.365,16v5.22h-1.764c-3.168,0 -5.076,1.404 -5.076,4.968v7.812h-5.544v-17.964h5.22l0.288,2.664c0.756,-1.764 2.34,-2.952 4.752,-2.952c0.648,0 1.368,0.072 2.124,0.252zM135.825,13.192c-1.764,0 -3.168,-1.404 -3.168,-3.168c0,-1.764 1.404,-3.132 3.168,-3.132c1.728,0 3.132,1.368 3.132,3.132c0,1.764 -1.404,3.168 -3.132,3.168zM133.089,34v-18h5.544v18zM149.272,34.468c-5.184,0 -8.532,-3.672 -8.532,-9.36c0,-5.724 3.42,-9.684 8.892,-9.684c2.232,0 4.356,0.9 5.4,2.232v-10.8h5.544v27.144h-5.22l-0.288,-2.304c-0.972,1.656 -3.204,2.772 -5.796,2.772zM150.604,29.392c2.592,0 4.392,-1.8 4.392,-4.5c0,-2.7 -1.8,-4.5 -4.392,-4.5c-2.628,0 -4.284,1.836 -4.284,4.5c0,2.664 1.656,4.5 4.284,4.5zM169.095,34.468c-3.816,0 -6.192,-2.232 -6.192,-5.76c0,-3.312 2.34,-5.364 6.66,-5.688l5.04,-0.396v-0.288c0,-1.764 -1.08,-2.7 -3.06,-2.7c-2.34,0 -3.6,0.9 -3.6,2.52h-4.608c0,-4.068 3.348,-6.732 8.496,-6.732c5.22,0 8.172,2.916 8.172,8.064v10.512h-4.896l-0.36,-2.376c-0.576,1.656 -2.952,2.844 -5.652,2.844zM171.039,30.364c2.124,0 3.6,-1.044 3.6,-3.096v-0.972l-2.808,0.252c-2.412,0.216 -3.276,0.756 -3.276,1.908c0,1.296 0.792,1.908 2.484,1.908zM180.932,42.64v-4.644h3.06c1.872,0 2.664,-0.576 3.384,-2.52l0.324,-0.864l-7.236,-18.612h5.94l3.924,11.556l4.356,-11.556h5.76l-9.144,21.924c-1.512,3.672 -3.528,5.22 -6.696,5.22c-1.332,0 -2.592,-0.18 -3.672,-0.504zM245.592,34.432c-7.992,0 -12.996,-5.292 -12.996,-13.716c0,-8.316 5.292,-13.788 13.248,-13.788c6.66,0 11.448,3.816 12.276,9.792h-6.156c-0.792,-2.664 -3.06,-4.176 -6.264,-4.176c-4.32,0 -6.948,3.06 -6.948,8.136c0,5.004 2.664,8.136 6.948,8.136c3.276,0 5.688,-1.62 6.408,-4.248h6.048c-0.936,5.94 -5.904,9.864 -12.564,9.864zM258.852,42.64v-4.644h3.06c1.872,0 2.664,-0.576 3.384,-2.52l0.324,-0.864l-7.236,-18.612h5.94l3.924,11.556l4.356,-11.556h5.76l-9.144,21.924c-1.512,3.672 -3.528,5.22 -6.696,5.22c-1.332,0 -2.592,-0.18 -3.672,-0.504zM284.788,34h-5.22v-27.144h5.544v11.232c1.08,-1.62 3.456,-2.7 6.048,-2.7c5.04,0 8.244,3.924 8.244,9.792c0,5.58 -3.564,9.288 -8.676,9.288c-2.52,0 -4.68,-1.116 -5.652,-2.772zM285.148,24.892c0,2.7 1.8,4.5 4.392,4.5c2.628,0 4.284,-1.836 4.284,-4.5c0,-2.664 -1.656,-4.5 -4.284,-4.5c-2.592,0 -4.392,1.8 -4.392,4.5zM309.867,34.468c-5.436,0 -9.324,-3.96 -9.324,-9.504c0,-5.616 3.78,-9.54 9.216,-9.54c5.652,0 9.18,3.708 9.18,9.576v1.404l-13.068,0.072c0.324,2.376 1.656,3.492 4.104,3.492c2.088,0 3.564,-0.756 3.96,-2.052h5.076c-0.648,3.996 -4.212,6.552 -9.144,6.552zM309.795,19.924c-2.196,0 -3.42,0.972 -3.852,3.132h7.488c0,-1.908 -1.404,-3.132 -3.636,-3.132zM333.526,16v5.22h-1.764c-3.168,0 -5.076,1.404 -5.076,4.968v7.812h-5.544v-17.964h5.22l0.288,2.664c0.756,-1.764 2.34,-2.952 4.752,-2.952c0.648,0 1.368,0.072 2.124,0.252zM8.424,74h-5.652v-26.64h5.652l7.92,19.872l7.956,-19.872h5.724v26.64h-5.652v-5.58c0,-5.76 0,-7.02 0.288,-9l-5.652,14.58h-5.328l-5.616,-14.58c0.324,1.98 0.36,4.212 0.36,7.128zM32.8368,64.964c0,-5.688 4.176,-9.504 9.936,-9.504c5.724,0 9.9,3.816 9.9,9.504c0,5.688 -4.176,9.468 -9.9,9.468c-5.76,0 -9.936,-3.78 -9.936,-9.468zM38.4168,64.928c0,2.736 1.764,4.536 4.356,4.536c2.556,0 4.32,-1.8 4.32,-4.536c0,-2.7 -1.764,-4.5 -4.32,-4.5c-2.592,0 -4.356,1.8 -4.356,4.5zM60.3509,74h-5.544v-18h5.22l0.36,1.872c1.116,-1.548 3.168,-2.448 5.508,-2.448c4.284,0 6.768,2.736 6.768,7.452v11.124h-5.544v-9.792c0,-2.268 -1.26,-3.744 -3.168,-3.744c-2.196,0 -3.6,1.44 -3.6,3.672zM83.1189,74.468c-5.184,0 -8.532,-3.672 -8.532,-9.36c0,-5.724 3.42,-9.684 8.892,-9.684c2.232,0 4.356,0.9 5.4,2.232v-10.8h5.544v27.144h-5.22l-0.288,-2.304c-0.972,1.656 -3.204,2.772 -5.796,2.772zM84.4509,69.392c2.592,0 4.392,-1.8 4.392,-4.5c0,-2.7 -1.8,-4.5 -4.392,-4.5c-2.628,0 -4.284,1.836 -4.284,4.5c0,2.664 1.656,4.5 4.284,4.5zM102.942,74.468c-3.8157,0 -6.1917,-2.232 -6.1917,-5.76c0,-3.312 2.34,-5.364 6.6597,-5.688l5.04,-0.396v-0.288c0,-1.764 -1.08,-2.7 -3.06,-2.7c-2.34,0 -3.6,0.9 -3.6,2.52h-4.6077c0,-4.068 3.3477,-6.732 8.4957,-6.732c5.22,0 8.172,2.916 8.172,8.064v10.512h-4.896l-0.36,-2.376c-0.576,1.656 -2.952,2.844 -5.652,2.844zM104.886,70.364c2.124,0 3.6,-1.044 3.6,-3.096v-0.972l-2.808,0.252c-2.412,0.216 -3.276,0.756 -3.276,1.908c0,1.296 0.792,1.908 2.484,1.908zM114.779,82.64v-4.644h3.06c1.872,0 2.664,-0.576 3.384,-2.52l0.324,-0.864l-7.236,-18.612h5.94l3.924,11.556l4.356,-11.556h5.76l-9.144,21.924c-1.512,3.672 -3.528,5.22 -6.696,5.22c-1.332,0 -2.592,-0.18 -3.672,-0.504z" fill="#50A896"/>
<path d="M213.515,34h-5.508l10.368,-26.568h5.544z" fill="#254D45"/>
</g>
<path id="deals start now !" d="M9.648,126.468c-5.184,0 -8.532,-3.672 -8.532,-9.36c0,-5.724 3.42,-9.684 8.892,-9.684c2.232,0 4.356,0.9 5.4,2.232v-10.8h5.544v27.144h-5.22l-0.288,-2.304c-0.972,1.656 -3.204,2.772 -5.796,2.772zM10.98,121.392c2.592,0 4.392,-1.8 4.392,-4.5c0,-2.7 -1.8,-4.5 -4.392,-4.5c-2.628,0 -4.284,1.836 -4.284,4.5c0,2.664 1.656,4.5 4.284,4.5zM33.4673,126.468c-5.436,0 -9.324,-3.96 -9.324,-9.504c0,-5.616 3.78,-9.54 9.216,-9.54c5.652,0 9.18,3.708 9.18,9.576v1.404l-13.068,0.072c0.324,2.376 1.656,3.492 4.104,3.492c2.088,0 3.564,-0.756 3.96,-2.052h5.076c-0.648,3.996 -4.212,6.552 -9.144,6.552zM33.3953,111.924c-2.196,0 -3.42,0.972 -3.852,3.132h7.488c0,-1.908 -1.404,-3.132 -3.636,-3.132zM51.0826,126.468c-3.816,0 -6.192,-2.232 -6.192,-5.76c0,-3.312 2.34,-5.364 6.66,-5.688l5.04,-0.396v-0.288c0,-1.764 -1.08,-2.7 -3.06,-2.7c-2.34,0 -3.6,0.9 -3.6,2.52h-4.608c0,-4.068 3.348,-6.732 8.496,-6.732c5.22,0 8.172,2.916 8.172,8.064v10.512h-4.896l-0.36,-2.376c-0.576,1.656 -2.952,2.844 -5.652,2.844zM53.0266,122.364c2.124,0 3.6,-1.044 3.6,-3.096v-0.972l-2.808,0.252c-2.412,0.216 -3.276,0.756 -3.276,1.908c0,1.296 0.792,1.908 2.484,1.908zM71.5109,126h-5.544v-27.144h5.544zM74.374,120.312h5.256c0.072,1.26 1.008,2.016 2.7,2.016c1.728,0 2.52,-0.612 2.52,-1.548c0,-0.54 -0.288,-1.116 -1.62,-1.404l-3.312,-0.72c-3.312,-0.72 -4.932,-2.16 -4.932,-5.328c0,-3.744 3.204,-5.904 7.524,-5.904c4.176,0 7.092,2.448 7.092,6.084h-5.256c0,-1.224 -0.756,-2.052 -2.088,-2.052c-1.26,0 -2.052,0.648 -2.052,1.62c0,0.828 0.684,1.296 1.944,1.584l3.348,0.72c2.952,0.648 4.572,2.016 4.572,4.896c0,3.852 -3.276,6.192 -7.956,6.192c-4.752,0 -7.74,-2.52 -7.74,-6.156zM101.198,120.312h5.256c0.072,1.26 1.008,2.016 2.7,2.016c1.728,0 2.52,-0.612 2.52,-1.548c0,-0.54 -0.288,-1.116 -1.62,-1.404l-3.312,-0.72c-3.312,-0.72 -4.932,-2.16 -4.932,-5.328c0,-3.744 3.204,-5.904 7.524,-5.904c4.176,0 7.092,2.448 7.092,6.084h-5.256c0,-1.224 -0.756,-2.052 -2.088,-2.052c-1.26,0 -2.052,0.648 -2.052,1.62c0,0.828 0.684,1.296 1.944,1.584l3.348,0.72c2.952,0.648 4.572,2.016 4.572,4.896c0,3.852 -3.276,6.192 -7.956,6.192c-4.752,0 -7.74,-2.52 -7.74,-6.156zM127.063,126h-5.544v-13.392h-3.42v-4.608h3.42v-5.58h5.544v5.58h3.42v4.608h-3.42zM138.411,126.468c-3.816,0 -6.192,-2.232 -6.192,-5.76c0,-3.312 2.34,-5.364 6.66,-5.688l5.04,-0.396v-0.288c0,-1.764 -1.08,-2.7 -3.06,-2.7c-2.34,0 -3.6,0.9 -3.6,2.52h-4.608c0,-4.068 3.348,-6.732 8.496,-6.732c5.22,0 8.172,2.916 8.172,8.064v10.512h-4.896l-0.36,-2.376c-0.576,1.656 -2.952,2.844 -5.652,2.844zM140.355,122.364c2.124,0 3.6,-1.044 3.6,-3.096v-0.972l-2.808,0.252c-2.412,0.216 -3.276,0.756 -3.276,1.908c0,1.296 0.792,1.908 2.484,1.908zM165.679,108v5.22h-1.764c-3.168,0 -5.076,1.404 -5.076,4.968v7.812h-5.544v-17.964h5.22l0.288,2.664c0.756,-1.764 2.34,-2.952 4.752,-2.952c0.648,0 1.368,0.072 2.124,0.252zM176.458,126h-5.544v-13.392h-3.42v-4.608h3.42v-5.58h5.544v5.58h3.42v4.608h-3.42zM197.441,126h-5.544v-18h5.22l0.36,1.872c1.116,-1.548 3.168,-2.448 5.508,-2.448c4.284,0 6.768,2.736 6.768,7.452v11.124h-5.544v-9.792c0,-2.268 -1.26,-3.744 -3.168,-3.744c-2.196,0 -3.6,1.44 -3.6,3.672zM212.757,116.964c0,-5.688 4.176,-9.504 9.936,-9.504c5.724,0 9.9,3.816 9.9,9.504c0,5.688 -4.176,9.468 -9.9,9.468c-5.76,0 -9.936,-3.78 -9.936,-9.468zM218.337,116.928c0,2.736 1.764,4.536 4.356,4.536c2.556,0 4.32,-1.8 4.32,-4.536c0,-2.7 -1.764,-4.5 -4.32,-4.5c-2.592,0 -4.356,1.8 -4.356,4.5zM238.961,126l-5.796,-18h5.832l1.656,5.868c0.432,1.548 0.828,3.312 1.116,5.112c0.324,-1.908 0.504,-2.592 1.296,-5.112l1.836,-5.868h5.688l1.692,5.868c0.18,0.612 1.044,3.96 1.224,5.112c0.216,-1.296 1.08,-4.464 1.26,-5.112l1.728,-5.868h5.868l-6.3,18h-5.148l-1.728,-5.724c-0.9,-2.952 -1.368,-5.076 -1.476,-5.832c-0.144,0.756 -0.468,2.16 -1.62,5.94l-1.728,5.616zM280.782,118.044h-4.572c-0.612,-3.096 -1.008,-7.956 -1.008,-12.672v-6.012h6.696v6.012c0,4.86 -0.468,9.72 -1.116,12.672zM278.514,126.468c-1.836,0 -3.312,-1.476 -3.312,-3.24c0,-1.8 1.476,-3.276 3.312,-3.276c1.764,0 3.312,1.476 3.312,3.276c0,1.764 -1.548,3.24 -3.312,3.24z" fill="#254D45"/>
</g></svg>