<svg viewBox="0 0 358 16" fill="none" xmlns="http://www.w3.org/2000/svg" x="0" y="0"><g id="Title">
<path id="Don’t miss out on :" d="M64.3037,13h-2.868v-8.676h2.82c2.592,0 4.344,1.752 4.344,4.344c0,2.58 -1.728,4.332 -4.296,4.332zM64.1717,5.404h-1.56v6.504h1.608c1.932,0 3.156,-1.248 3.156,-3.24c0,-2.016 -1.224,-3.264 -3.204,-3.264zM69.5199,10.06c0,-1.812 1.296,-3.084 3.06,-3.084c1.752,0 3.048,1.272 3.048,3.084c0,1.812 -1.296,3.084 -3.048,3.084c-1.764,0 -3.06,-1.272 -3.06,-3.084zM70.6599,10.06c0,1.224 0.78,2.076 1.92,2.076c1.128,0 1.92,-0.852 1.92,-2.076c0,-1.224 -0.792,-2.076 -1.92,-2.076c-1.14,0 -1.92,0.852 -1.92,2.076zM78.0045,13h-1.128v-5.868h1.02l0.12,0.9c0.372,-0.672 1.116,-1.068 1.944,-1.068c1.548,0 2.256,0.948 2.256,2.448v3.588h-1.128v-3.336c0,-1.188 -0.552,-1.668 -1.416,-1.668c-1.056,0 -1.668,0.756 -1.668,1.896zM85.1285,5.2c0,0.876 -0.612,1.584 -1.452,1.692v-0.504c0.468,-0.084 0.804,-0.396 0.804,-0.78c-0.084,0.048 -0.192,0.072 -0.336,0.072c-0.36,0 -0.672,-0.264 -0.672,-0.732c0,-0.456 0.312,-0.792 0.792,-0.792c0.48,0 0.864,0.396 0.864,1.044zM88.3411,13h-1.128v-4.92h-1.152v-0.948h1.152v-1.836h1.128v1.836h1.152v0.948h-1.152zM94.9147,13h-1.128v-5.868h1.008l0.108,0.768c0.3,-0.552 0.924,-0.936 1.752,-0.936c0.912,0 1.56,0.456 1.86,1.188c0.276,-0.732 0.984,-1.188 1.8963,-1.188c1.344,0 2.16,0.84 2.16,2.196v3.84h-1.104v-3.564c0,-0.924 -0.516,-1.452 -1.308,-1.452c-0.8523,0 -1.4163,0.6 -1.4163,1.536v3.48h-1.116v-3.576c0,-0.924 -0.504,-1.428 -1.296,-1.428c-0.852,0 -1.416,0.588 -1.416,1.524zM104.686,5.74c-0.408,0 -0.744,-0.336 -0.744,-0.744c0,-0.42 0.336,-0.744 0.744,-0.744c0.408,0 0.744,0.324 0.744,0.744c0,0.408 -0.336,0.744 -0.744,0.744zM104.134,13v-5.868h1.128v5.868zM106.42,11.296h1.08c0,0.6 0.456,0.96 1.2,0.96c0.792,0 1.248,-0.324 1.248,-0.864c0,-0.396 -0.192,-0.636 -0.804,-0.792l-1.032,-0.24c-1.044,-0.252 -1.536,-0.768 -1.536,-1.632c0,-1.08 0.912,-1.764 2.208,-1.764c1.284,0 2.124,0.72 2.148,1.836h-1.08c-0.024,-0.588 -0.42,-0.96 -1.104,-0.96c-0.708,0 -1.104,0.312 -1.104,0.852c0,0.396 0.288,0.66 0.864,0.804l1.032,0.252c0.996,0.24 1.488,0.696 1.488,1.572c0,1.116 -0.96,1.824 -2.352,1.824c-1.38,0 -2.256,-0.732 -2.256,-1.848zM111.799,11.296h1.08c0,0.6 0.456,0.96 1.2,0.96c0.792,0 1.248,-0.324 1.248,-0.864c0,-0.396 -0.192,-0.636 -0.804,-0.792l-1.032,-0.24c-1.044,-0.252 -1.536,-0.768 -1.536,-1.632c0,-1.08 0.912,-1.764 2.208,-1.764c1.284,0 2.124,0.72 2.148,1.836h-1.08c-0.024,-0.588 -0.42,-0.96 -1.104,-0.96c-0.708,0 -1.104,0.312 -1.104,0.852c0,0.396 0.288,0.66 0.864,0.804l1.032,0.252c0.996,0.24 1.488,0.696 1.488,1.572c0,1.116 -0.96,1.824 -2.352,1.824c-1.38,0 -2.256,-0.732 -2.256,-1.848zM120.555,10.06c0,-1.812 1.296,-3.084 3.06,-3.084c1.752,0 3.048,1.272 3.048,3.084c0,1.812 -1.296,3.084 -3.048,3.084c-1.764,0 -3.06,-1.272 -3.06,-3.084zM121.695,10.06c0,1.224 0.78,2.076 1.92,2.076c1.128,0 1.92,-0.852 1.92,-2.076c0,-1.224 -0.792,-2.076 -1.92,-2.076c-1.14,0 -1.92,0.852 -1.92,2.076zM131.827,7.132h1.116v5.868h-1.008l-0.12,-0.888c-0.336,0.612 -1.116,1.032 -1.98,1.032c-1.368,0 -2.136,-0.924 -2.136,-2.364v-3.648h1.128v3.276c0,1.26 0.54,1.74 1.404,1.74c1.032,0 1.596,-0.66 1.596,-1.92zM136.236,13h-1.128v-4.92h-1.152v-0.948h1.152v-1.836h1.128v1.836h1.152v0.948h-1.152zM141.297,10.06c0,-1.812 1.296,-3.084 3.06,-3.084c1.752,0 3.048,1.272 3.048,3.084c0,1.812 -1.296,3.084 -3.048,3.084c-1.764,0 -3.06,-1.272 -3.06,-3.084zM142.437,10.06c0,1.224 0.78,2.076 1.92,2.076c1.128,0 1.92,-0.852 1.92,-2.076c0,-1.224 -0.792,-2.076 -1.92,-2.076c-1.14,0 -1.92,0.852 -1.92,2.076zM149.782,13h-1.128v-5.868h1.02l0.12,0.9c0.372,-0.672 1.116,-1.068 1.944,-1.068c1.548,0 2.256,0.948 2.256,2.448v3.588h-1.128v-3.336c0,-1.188 -0.552,-1.668 -1.416,-1.668c-1.056,0 -1.668,0.756 -1.668,1.896zM159.797,8.644c-0.468,0 -0.864,-0.384 -0.864,-0.828c0,-0.468 0.396,-0.852 0.864,-0.852c0.456,0 0.852,0.384 0.852,0.852c0,0.444 -0.396,0.828 -0.852,0.828zM159.797,13.144c-0.468,0 -0.864,-0.384 -0.864,-0.84c0,-0.468 0.396,-0.852 0.864,-0.852c0.456,0 0.852,0.384 0.852,0.852c0,0.456 -0.396,0.84 -0.852,0.84z" fill="currentColor"/>
<path id="use code :" d="M236.987,7.132h1.116v5.868h-1.008l-0.12,-0.888c-0.336,0.612 -1.116,1.032 -1.98,1.032c-1.368,0 -2.136,-0.924 -2.136,-2.364v-3.648h1.128v3.276c0,1.26 0.54,1.74 1.404,1.74c1.032,0 1.596,-0.66 1.596,-1.92zM239.143,11.296h1.08c0,0.6 0.456,0.96 1.2,0.96c0.792,0 1.248,-0.324 1.248,-0.864c0,-0.396 -0.192,-0.636 -0.804,-0.792l-1.032,-0.24c-1.044,-0.252 -1.536,-0.768 -1.536,-1.632c0,-1.08 0.912,-1.764 2.208,-1.764c1.284,0 2.124,0.72 2.148,1.836h-1.08c-0.024,-0.588 -0.42,-0.96 -1.104,-0.96c-0.708,0 -1.104,0.312 -1.104,0.852c0,0.396 0.288,0.66 0.864,0.804l1.032,0.252c0.996,0.24 1.488,0.696 1.488,1.572c0,1.116 -0.96,1.824 -2.352,1.824c-1.38,0 -2.256,-0.732 -2.256,-1.848zM247.534,13.144c-1.728,0 -2.916,-1.248 -2.916,-3.072c0,-1.836 1.164,-3.108 2.868,-3.108c1.668,0 2.76,1.152 2.76,2.892v0.42l-4.536,0.012c0.084,1.236 0.732,1.92 1.848,1.92c0.876,0 1.452,-0.36 1.644,-1.032h1.056c-0.288,1.26 -1.272,1.968 -2.724,1.968zM247.486,7.912c-0.984,0 -1.608,0.588 -1.752,1.62h3.384c0,-0.972 -0.636,-1.62 -1.632,-1.62zM254.403,10.072c0,-1.836 1.164,-3.108 2.88,-3.108c1.476,0 2.508,0.84 2.712,2.148h-1.128c-0.192,-0.744 -0.792,-1.14 -1.548,-1.14c-1.068,0 -1.8,0.816 -1.8,2.088c0,1.26 0.684,2.076 1.752,2.076c0.804,0 1.404,-0.42 1.608,-1.116h1.128c-0.228,1.272 -1.32,2.124 -2.736,2.124c-1.728,0 -2.868,-1.224 -2.868,-3.072zM260.813,10.06c0,-1.812 1.296,-3.084 3.06,-3.084c1.752,0 3.048,1.272 3.048,3.084c0,1.812 -1.296,3.084 -3.048,3.084c-1.764,0 -3.06,-1.272 -3.06,-3.084zM261.953,10.06c0,1.224 0.78,2.076 1.92,2.076c1.128,0 1.92,-0.852 1.92,-2.076c0,-1.224 -0.792,-2.076 -1.92,-2.076c-1.14,0 -1.92,0.852 -1.92,2.076zM270.522,13.144c-1.704,0 -2.736,-1.272 -2.736,-3.06c0,-1.8 1.044,-3.12 2.784,-3.12c0.9,0 1.656,0.396 2.052,1.116v-3.912h1.116v8.832h-1.008l-0.096,-1.068c-0.384,0.804 -1.176,1.212 -2.112,1.212zM270.75,12.124c1.152,0 1.86,-0.852 1.86,-2.076c0,-1.2 -0.708,-2.064 -1.86,-2.064c-1.152,0 -1.824,0.864 -1.824,2.064c0,1.212 0.672,2.076 1.824,2.076zM277.897,13.144c-1.728,0 -2.916,-1.248 -2.916,-3.072c0,-1.836 1.164,-3.108 2.868,-3.108c1.668,0 2.76,1.152 2.76,2.892v0.42l-4.536,0.012c0.084,1.236 0.732,1.92 1.848,1.92c0.876,0 1.452,-0.36 1.644,-1.032h1.056c-0.288,1.26 -1.272,1.968 -2.724,1.968zM277.849,7.912c-0.984,0 -1.608,0.588 -1.752,1.62h3.384c0,-0.972 -0.636,-1.62 -1.632,-1.62zM286.11,8.644c-0.468,0 -0.864,-0.384 -0.864,-0.828c0,-0.468 0.396,-0.852 0.864,-0.852c0.456,0 0.852,0.384 0.852,0.852c0,0.444 -0.396,0.828 -0.852,0.828zM286.11,13.144c-0.468,0 -0.864,-0.384 -0.864,-0.84c0,-0.468 0.396,-0.852 0.864,-0.852c0.456,0 0.852,0.384 0.852,0.852c0,0.456 -0.396,0.84 -0.852,0.84z" fill="currentColor"/>
</g></svg>