<svg width="20" height="20" viewBox="0 0 20 20" fill="none" xmlns="http://www.w3.org/2000/svg">
<path d="M15.1269 9.46258C15.3728 9.70835 15.5678 10.0001 15.7008 10.3213C15.8338 10.6424 15.9023 10.9866 15.9023 11.3342C15.9023 11.6819 15.8338 12.0261 15.7008 12.3472C15.5678 12.6684 15.3728 12.9601 15.1269 13.2059L15.1186 13.2142L10.0003 18.3334L4.88027 13.2134L4.87277 13.2059C4.62119 12.9546 4.4229 12.655 4.28977 12.3253C4.15663 11.9955 4.09138 11.6423 4.09792 11.2867C4.10446 10.9311 4.18267 10.5806 4.32785 10.2559C4.47303 9.93127 4.6822 9.63925 4.94286 9.39732C5.20352 9.15539 5.5103 8.96853 5.84485 8.84792C6.1794 8.72731 6.53484 8.67542 6.88991 8.69536C7.24497 8.7153 7.59237 8.80666 7.91131 8.96397C8.23025 9.12129 8.51418 9.34132 8.74611 9.61091L10.0003 10.8659L11.2086 9.65758C11.4429 9.3716 11.7344 9.13786 12.0645 8.97142C12.3946 8.80499 12.7559 8.70955 13.1251 8.69126C13.4944 8.67296 13.8633 8.73222 14.2082 8.86522C14.5532 8.99821 14.8664 9.20198 15.1278 9.46341L15.1269 9.46258ZM7.49944 4.16675C7.49944 4.49505 7.56411 4.82014 7.68974 5.12346C7.81538 5.42677 7.99953 5.70237 8.23167 5.93451C8.46382 6.16666 8.73942 6.35081 9.04273 6.47645C9.34605 6.60208 9.67114 6.66675 9.99944 6.66675C10.3277 6.66675 10.6528 6.60208 10.9561 6.47645C11.2595 6.35081 11.5351 6.16666 11.7672 5.93451C11.9994 5.70237 12.1835 5.42677 12.3091 5.12346C12.4348 4.82014 12.4994 4.49505 12.4994 4.16675C12.4994 3.83844 12.4348 3.51335 12.3091 3.21004C12.1835 2.90673 11.9994 2.63113 11.7672 2.39898C11.5351 2.16683 11.2595 1.98269 10.9561 1.85705C10.6528 1.73141 10.3277 1.66675 9.99944 1.66675C9.67114 1.66675 9.34605 1.73141 9.04273 1.85705C8.73942 1.98269 8.46382 2.16683 8.23167 2.39898C7.99953 2.63113 7.81538 2.90673 7.68974 3.21004C7.56411 3.51335 7.49944 3.83844 7.49944 4.16675Z" stroke="#B9C7B5" stroke-width="1.25"/>
</svg>
