<svg width="283" height="404" viewBox="0 0 283 404" fill="none" xmlns="http://www.w3.org/2000/svg">
<g clip-path="url(#clip0_1_501)">
<g clip-path="url(#clip1_1_501)">
<path d="M283 -0.00830078H0V403.458H283V-0.00830078Z" fill="#E9FF86"/>
<path d="M180.032 198.761C199.781 198.761 215.789 182.752 215.789 163.004C215.789 143.256 199.781 127.246 180.032 127.246C160.284 127.246 144.275 143.256 144.275 163.004C144.275 182.752 160.284 198.761 180.032 198.761Z" fill="#50A896"/>
<path d="M180.032 276.203C199.781 276.203 215.789 260.195 215.789 240.446C215.789 220.698 199.781 204.688 180.032 204.688C160.284 204.688 144.275 220.698 144.275 240.446C144.275 260.195 160.284 276.203 180.032 276.203Z" fill="#D3DECE"/>
<path d="M102.971 276.203C122.719 276.203 138.728 260.195 138.728 240.446C138.728 220.698 122.719 204.688 102.971 204.688C83.2224 204.688 67.2133 220.698 67.2133 240.446C67.2133 260.195 83.2224 276.203 102.971 276.203Z" fill="#50A896"/>
</g>
</g>
<defs>
<clipPath id="clip0_1_501">
<rect width="283" height="403.45" fill="white"/>
</clipPath>
<clipPath id="clip1_1_501">
<rect width="283" height="403.466" fill="white" transform="translate(0 -0.00830078)"/>
</clipPath>
</defs>
</svg>
