<svg width="104" height="27" viewBox="0 0 104 27" fill="none" xmlns="http://www.w3.org/2000/svg">
<mask id="mask0_1_166" style="mask-type:luminance" maskUnits="userSpaceOnUse" x="0" y="0" width="104" height="26">
<path d="M103.836 0.615967H0.498718V25.9941H103.836V0.615967Z" fill="white"/>
</mask>
<g mask="url(#mask0_1_166)">
<path d="M27.6551 9.61035H38.1183V11.5625H34.0042V22.5365H31.7419V11.5625H27.646V9.61035H27.6551ZM37.6714 13.1772H39.6053V14.9834H39.6418C39.7056 14.728 39.8242 14.4817 39.9976 14.2445C40.1709 14.0073 40.3807 13.7792 40.627 13.5877C40.8732 13.387 41.1469 13.2319 41.4479 13.1042C41.749 12.9856 42.0591 12.9217 42.3693 12.9217C42.6065 12.9217 42.7798 12.9308 42.871 12.94C42.9622 12.9491 43.0535 12.9673 43.1538 12.9765V14.9651C43.0079 14.9378 42.8619 14.9195 42.7068 14.9013C42.5517 14.883 42.4058 14.8739 42.2598 14.8739C41.9132 14.8739 41.5848 14.9469 41.2746 15.0837C40.9644 15.2206 40.7 15.4304 40.4719 15.6949C40.2439 15.9686 40.0614 16.2969 39.9246 16.6983C39.7877 17.0997 39.7239 17.5558 39.7239 18.0758V22.5274H37.6622V13.1772H37.6714ZM52.6318 22.5365H50.6067V21.2321H50.5702C50.3148 21.7065 49.9408 22.0804 49.4391 22.3632C48.9373 22.646 48.4265 22.792 47.9065 22.792C46.6751 22.792 45.7811 22.4909 45.2337 21.8798C44.6864 21.2686 44.4127 20.3473 44.4127 19.1157V13.1772H46.4744V18.915C46.4744 19.7361 46.6295 20.3199 46.9486 20.6574C47.2588 20.995 47.7058 21.1683 48.2714 21.1683C48.7093 21.1683 49.065 21.1044 49.357 20.9676C49.6489 20.8308 49.8861 20.6574 50.0594 20.4294C50.2418 20.2104 50.3695 19.9368 50.4516 19.6266C50.5337 19.3164 50.5702 18.9789 50.5702 18.614V13.1863H52.6318V22.5365ZM56.1439 19.5354C56.2078 20.1374 56.4358 20.5571 56.8281 20.8034C57.2295 21.0406 57.7039 21.1683 58.2603 21.1683C58.4518 21.1683 58.6707 21.15 58.917 21.1227C59.1633 21.0953 59.4005 21.0314 59.6103 20.9493C59.8293 20.8672 60.0026 20.7395 60.1486 20.5753C60.2854 20.4111 60.3493 20.2013 60.3401 19.9368C60.331 19.6722 60.2307 19.4533 60.0482 19.2891C59.8658 19.1157 59.6377 18.988 59.3549 18.8786C59.0721 18.7782 58.7528 18.687 58.3879 18.614C58.0231 18.541 57.6582 18.4589 57.2842 18.3768C56.9011 18.2947 56.5271 18.1853 56.1713 18.0667C55.8155 17.9481 55.4962 17.7839 55.2134 17.5741C54.9306 17.3734 54.7026 17.1088 54.5384 16.7895C54.3651 16.4702 54.283 16.0781 54.283 15.6037C54.283 15.0929 54.4107 14.6732 54.657 14.3266C54.9033 13.9799 55.2226 13.7063 55.5966 13.4964C55.9797 13.2866 56.3994 13.1407 56.8646 13.0494C57.3298 12.9673 57.7768 12.9217 58.1965 12.9217C58.6799 12.9217 59.1451 12.9765 59.583 13.0768C60.0209 13.1772 60.4222 13.3414 60.778 13.5785C61.1338 13.8066 61.4257 14.1076 61.6629 14.4725C61.9001 14.8374 62.046 15.2844 62.1099 15.8044H59.957C59.8567 15.3118 59.6377 14.9743 59.2819 14.8101C58.9262 14.6367 58.5157 14.5546 58.0596 14.5546C57.9137 14.5546 57.7403 14.5638 57.5397 14.5911C57.339 14.6185 57.1565 14.6641 56.9741 14.728C56.8007 14.7918 56.6548 14.8922 56.5271 15.0199C56.4085 15.1476 56.3446 15.3118 56.3446 15.5216C56.3446 15.777 56.4358 15.9777 56.6092 16.1328C56.7825 16.2878 57.0106 16.4155 57.2934 16.525C57.5761 16.6253 57.8954 16.7165 58.2603 16.7895C58.6251 16.8625 58.9991 16.9446 59.3823 17.0267C59.7563 17.1088 60.1212 17.2183 60.4861 17.3369C60.851 17.4555 61.1703 17.6197 61.4531 17.8295C61.7359 18.0393 61.9639 18.2947 62.1372 18.6049C62.3106 18.915 62.4018 19.3073 62.4018 19.7634C62.4018 20.3199 62.2741 20.7851 62.0187 21.1774C61.7632 21.5605 61.4348 21.8798 61.0334 22.117C60.632 22.3541 60.1759 22.5365 59.6833 22.646C59.1907 22.7555 58.6981 22.8102 58.2147 22.8102C57.6218 22.8102 57.0744 22.7464 56.5727 22.6095C56.0709 22.4727 55.6331 22.272 55.2682 22.0075C54.9033 21.7339 54.6114 21.3963 54.4015 20.995C54.1917 20.5936 54.0823 20.1101 54.064 19.5536H56.1439V19.5354ZM62.9491 13.1772H64.509V10.3675H66.5706V13.1772H68.4316V14.7188H66.5706V19.7178C66.5706 19.9368 66.5798 20.1192 66.598 20.2834C66.6163 20.4385 66.6619 20.5753 66.7257 20.6848C66.7896 20.7943 66.8899 20.8764 67.0268 20.9311C67.1636 20.9858 67.3369 21.0132 67.5741 21.0132C67.7201 21.0132 67.866 21.0132 68.012 21.0041C68.1579 20.995 68.3039 20.9767 68.4499 20.9402V22.5365C68.2218 22.5639 67.9937 22.5822 67.7839 22.6095C67.565 22.6369 67.346 22.646 67.118 22.646C66.5706 22.646 66.1328 22.5913 65.8044 22.4909C65.4759 22.3906 65.2114 22.2355 65.029 22.0349C64.8374 21.8342 64.7188 21.5879 64.6458 21.2869C64.582 20.9858 64.5363 20.6392 64.5272 20.256V14.7371H62.9674V13.1772H62.9491ZM69.8912 13.1772H71.8433V14.4452H71.8798C72.1717 13.8978 72.5731 13.5147 73.0931 13.2775C73.613 13.0403 74.1695 12.9217 74.7807 12.9217C75.5196 12.9217 76.1581 13.0494 76.7054 13.314C77.2528 13.5694 77.7089 13.9252 78.0738 14.3813C78.4387 14.8374 78.7032 15.3665 78.8857 15.9686C79.0681 16.5706 79.1594 17.2183 79.1594 17.9025C79.1594 18.5319 79.0773 19.1431 78.9131 19.7269C78.7489 20.3199 78.5026 20.8399 78.1741 21.296C77.8457 21.7521 77.4261 22.1078 76.9152 22.3815C76.4044 22.6551 75.8115 22.792 75.1182 22.792C74.8172 22.792 74.5162 22.7646 74.2151 22.7099C73.9141 22.6551 73.6222 22.5639 73.3485 22.4453C73.0748 22.3267 72.8103 22.1716 72.5822 21.9802C72.345 21.7886 72.1535 21.5697 71.9893 21.3234H71.9528V25.9939H69.8912V13.1772ZM77.0977 17.866C77.0977 17.4463 77.043 17.0358 76.9335 16.6344C76.824 16.2332 76.6598 15.8865 76.4409 15.5763C76.222 15.2662 75.9483 15.0199 75.6291 14.8374C75.3007 14.655 74.9267 14.5546 74.507 14.5546C73.6404 14.5546 72.9836 14.8557 72.5457 15.4578C72.1078 16.0598 71.8889 16.8625 71.8889 17.866C71.8889 18.3403 71.9436 18.7782 72.0622 19.1796C72.1808 19.581 72.345 19.9276 72.5822 20.2196C72.8103 20.5115 73.0839 20.7395 73.4032 20.9037C73.7225 21.0771 74.0965 21.1592 74.5162 21.1592C74.9905 21.1592 75.3828 21.0588 75.7112 20.8672C76.0395 20.6757 76.304 20.4202 76.5139 20.1192C76.7237 19.809 76.8788 19.4624 76.97 19.0701C77.0521 18.6779 77.0977 18.2765 77.0977 17.866ZM80.7375 9.61035H82.7991V11.5625H80.7375V9.61035ZM80.7375 13.1772H82.7991V22.5365H80.7375V13.1772ZM84.6418 9.61035H86.7035V22.5365H84.6418V9.61035ZM93.0252 22.792C92.2772 22.792 91.6112 22.6643 91.0274 22.418C90.4436 22.1716 89.951 21.8251 89.5405 21.3963C89.1391 20.9585 88.8289 20.4385 88.6191 19.8364C88.4093 19.2343 88.2998 18.5684 88.2998 17.8477C88.2998 17.1362 88.4093 16.4794 88.6191 15.8774C88.8289 15.2753 89.1391 14.7553 89.5405 14.3175C89.9418 13.8796 90.4436 13.542 91.0274 13.2957C91.6112 13.0494 92.2772 12.9217 93.0252 12.9217C93.7732 12.9217 94.4391 13.0494 95.0229 13.2957C95.6068 13.542 96.0994 13.8887 96.5099 14.3175C96.9113 14.7553 97.2214 15.2753 97.4312 15.8774C97.6411 16.4794 97.7505 17.1362 97.7505 17.8477C97.7505 18.5684 97.6411 19.2343 97.4312 19.8364C97.2214 20.4385 96.9113 20.9585 96.5099 21.3963C96.1085 21.8342 95.6068 22.1716 95.0229 22.418C94.4391 22.6643 93.7732 22.792 93.0252 22.792ZM93.0252 21.1592C93.4812 21.1592 93.8826 21.0588 94.2202 20.8672C94.5577 20.6757 94.8314 20.4202 95.0503 20.1101C95.2692 19.7999 95.4243 19.4441 95.5338 19.0519C95.6341 18.6596 95.6889 18.2582 95.6889 17.8477C95.6889 17.4463 95.6341 17.0541 95.5338 16.6527C95.4334 16.2513 95.2692 15.9048 95.0503 15.5946C94.8314 15.2844 94.5577 15.0381 94.2202 14.8466C93.8826 14.655 93.4812 14.5546 93.0252 14.5546C92.5691 14.5546 92.1677 14.655 91.8302 14.8466C91.4927 15.0381 91.219 15.2936 91 15.5946C90.7811 15.9048 90.626 16.2513 90.5166 16.6527C90.4162 17.0541 90.3615 17.4463 90.3615 17.8477C90.3615 18.2582 90.4162 18.6596 90.5166 19.0519C90.6169 19.4441 90.7811 19.7999 91 20.1101C91.219 20.4202 91.4927 20.6757 91.8302 20.8672C92.1677 21.0679 92.5691 21.1592 93.0252 21.1592ZM98.3526 13.1772H99.9122V10.3675H101.974V13.1772H103.835V14.7188H101.974V19.7178C101.974 19.9368 101.983 20.1192 102.002 20.2834C102.019 20.4385 102.065 20.5753 102.129 20.6848C102.193 20.7943 102.293 20.8764 102.43 20.9311C102.567 20.9858 102.74 21.0132 102.978 21.0132C103.124 21.0132 103.27 21.0132 103.415 21.0041C103.561 20.995 103.707 20.9767 103.854 20.9402V22.5365C103.625 22.5639 103.397 22.5822 103.187 22.6095C102.969 22.6369 102.749 22.646 102.521 22.646C101.974 22.646 101.537 22.5913 101.208 22.4909C100.879 22.3906 100.615 22.2355 100.432 22.0349C100.241 21.8342 100.122 21.5879 100.05 21.2869C99.9858 20.9858 99.9397 20.6392 99.9309 20.256V14.7371H98.3712V13.1772H98.3526Z" fill="#523A2D"/>
<path d="M25.2474 9.61051H15.7967L12.8776 0.615967L9.94934 9.61051L0.498718 9.60139L8.15228 15.166L5.22404 24.1513L12.8776 18.5959L20.5221 24.1513L17.6029 15.166L25.2474 9.61051Z" fill="#523A2D"/>
<path d="M18.2609 17.2001L17.6041 15.1658L12.8788 18.5958L18.2609 17.2001Z" fill="#FFEDE3"/>
</g>
</svg>
