<svg width="18" height="18" viewBox="0 0 18 18" fill="none" xmlns="http://www.w3.org/2000/svg">
<path fill-rule="evenodd" clip-rule="evenodd" d="M1.5 0C0.671569 0 0 0.671569 0 1.5V16.4999C0 17.3283 0.671569 17.9999 1.5 17.9999H16.5C17.3284 17.9999 18 17.3283 18 16.4999V1.5C18 0.671569 17.3284 0 16.5 0H1.5ZM5.52075 4.00271C5.52638 4.95896 4.8106 5.54818 3.96122 5.54396C3.16106 5.53974 2.46357 4.90271 2.46779 4.00412C2.47201 3.15896 3.13997 2.47975 4.00763 2.49944C4.88794 2.51913 5.52638 3.16459 5.52075 4.00271ZM9.27968 6.76176H6.7597H6.75829V15.3215H9.42168V15.1218C9.42168 14.7419 9.42138 14.3619 9.42108 13.9818C9.42028 12.968 9.41938 11.9531 9.42458 10.9397C9.42598 10.6936 9.43718 10.4377 9.50048 10.2028C9.73808 9.32525 10.5271 8.75855 11.4074 8.89785C11.9727 8.98635 12.3467 9.31405 12.5042 9.84705C12.6013 10.1803 12.6449 10.5389 12.6491 10.8863C12.6605 11.9338 12.6589 12.9814 12.6573 14.0291C12.6567 14.3989 12.6561 14.7689 12.6561 15.1387V15.3201H15.328V15.1148C15.328 14.6628 15.3278 14.2109 15.3275 13.759C15.327 12.6295 15.3264 11.5001 15.3294 10.3702C15.3308 9.85965 15.276 9.35625 15.1508 8.86265C14.9638 8.12856 14.5771 7.52106 13.9485 7.08236C13.5027 6.77016 13.0133 6.56906 12.4663 6.54656C12.404 6.54396 12.3412 6.54066 12.2781 6.53716C11.9984 6.52206 11.7141 6.50676 11.4467 6.56066C10.6817 6.71396 10.0096 7.06406 9.50188 7.68136C9.44288 7.75216 9.38518 7.82406 9.29908 7.93136L9.27968 7.95566V6.76176ZM2.68164 15.3243H5.33241V6.76736H2.68164V15.3243Z" fill="white"/>
</svg>
