<svg width="20" height="20" viewBox="0 0 20 20" fill="none" xmlns="http://www.w3.org/2000/svg">
<path d="M8.49677 4.45178L4.45927 8.49011C3.98408 8.95114 3.60533 9.50208 3.34504 10.1109C3.08476 10.7196 2.94814 11.3741 2.94314 12.0362C2.93813 12.6982 3.06485 13.3547 3.3159 13.9673C3.56696 14.5799 3.93734 15.1365 4.40551 15.6047C4.87367 16.0729 5.43027 16.4433 6.0429 16.6943C6.65554 16.9454 7.31199 17.0721 7.97406 17.0671C8.63612 17.0621 9.29058 16.9255 9.89936 16.6652C10.5081 16.4049 11.0591 16.0261 11.5201 15.5509L15.5576 11.5134C16.4778 10.5738 16.9902 9.30898 16.9834 7.99377C16.9765 6.67856 16.4511 5.41915 15.5211 4.48909C14.5912 3.55903 13.3318 3.03342 12.0166 3.02644C10.7014 3.01945 9.43655 3.53165 8.49677 4.45178Z" stroke="#254D45" stroke-width="1.25" stroke-linecap="round" stroke-linejoin="round"/>
<path d="M14.0387 13.0326C12.4273 12.4328 10.9833 11.4551 9.82784 10.1818C8.55479 9.02625 7.57745 7.58225 6.97784 5.97093M10.0053 5.97093C10.2036 5.77126 10.4395 5.61278 10.6993 5.50464C10.9591 5.3965 11.2377 5.34082 11.5191 5.34082C11.8005 5.34082 12.0791 5.3965 12.3389 5.50464C12.5987 5.61278 12.8346 5.77126 13.0328 5.97093" stroke="#254D45" stroke-width="1.25" stroke-linecap="round" stroke-linejoin="round"/>
</svg>
