<svg viewBox="0 0 358 42" fill="none" xmlns="http://www.w3.org/2000/svg" x="0" y="0"><g id="3 MONTH">
<rect y="0" width="358" height="42" rx="21" fill="#50A896" fill-opacity="0.2" x="0"/>
<g id="Frame 1_2">
<path id="$150 OFF" d="M16.2214,28.488v-1.296c-2.336,-0.192 -3.808,-1.568 -3.808,-3.632h2.576c0,0.768 0.432,1.232 1.232,1.376v-2.768l-0.432,-0.08c-2.144,-0.432 -3.2,-1.6 -3.2,-3.488c0,-1.936 1.472,-3.36 3.632,-3.616v-1.328h1.472v1.328c2.096,0.256 3.392,1.584 3.392,3.6h-2.496c0,-0.656 -0.32,-1.104 -0.896,-1.312v2.832l0.464,0.096c2.176,0.448 3.12,1.424 3.12,3.232c0,2.016 -1.392,3.408 -3.584,3.712v1.344zM15.1174,18.504c0,0.688 0.32,1.088 1.104,1.296v-2.56c-0.704,0.16 -1.104,0.608 -1.104,1.264zM18.7654,23.688c0,-0.688 -0.368,-1.072 -1.072,-1.216v2.4c0.672,-0.192 1.072,-0.608 1.072,-1.184zM24.3554,17.48h-2.688v-2.32h5.168v11.84h-2.48zM32.0796,27.192c-2.544,0 -4.24,-1.632 -4.24,-4.08h2.56c0,1.12 0.656,1.792 1.744,1.792c1.168,0 1.888,-0.752 1.888,-2c0,-1.216 -0.672,-1.936 -1.84,-1.936c-0.8,0 -1.52,0.416 -1.808,0.992l-2.368,-0.448l1.488,-6.352h6.432v2.4h-4.576l-0.464,1.728c0.512,-0.304 1.168,-0.464 1.888,-0.464c2.304,0 3.904,1.52 3.904,3.92c0,2.656 -1.872,4.448 -4.608,4.448zM37.0288,21.112c0,-3.664 2.08,-6.176 5.168,-6.176c3.088,0 5.168,2.512 5.168,6.176c0,3.664 -1.92,6.096 -5.168,6.096c-3.248,0 -5.168,-2.432 -5.168,-6.096zM39.5888,21.112c0,2.544 0.96,3.824 2.608,3.824c1.648,0 2.608,-1.28 2.608,-3.824c0,-2.624 -0.96,-3.904 -2.608,-3.904c-1.648,0 -2.608,1.28 -2.608,3.904zM63.0676,21.064c0,3.616 -2.384,6.128 -5.824,6.128c-3.424,0 -5.776,-2.496 -5.776,-6.112c0,-3.616 2.368,-6.128 5.792,-6.128c3.44,0 5.808,2.496 5.808,6.112zM60.3316,21.064c0,-2.256 -1.152,-3.616 -3.056,-3.616c-1.92,0 -3.072,1.36 -3.072,3.616c0,2.272 1.152,3.632 3.072,3.632c1.904,0 3.056,-1.392 3.056,-3.632zM70.9856,22.376h-4.16v4.624h-2.592v-11.84h7.536v2.4h-4.944v2.48h4.16zM79.6581,22.376h-4.16v4.624h-2.592v-11.84h7.536v2.4h-4.944v2.48h4.16z" fill="#254D45"/>
<path id="3 MONTHS" d="M93.1222,21.016h-1.152v-1.04l3.28,-3.152h-5.2v-1.392h7.184v1.264l-3.168,3.024c1.968,0.24 3.456,1.568 3.456,3.648c0,2.336 -1.76,3.824 -4.112,3.824c-2.272,0 -3.904,-1.392 -3.904,-3.792h1.552c0,1.504 0.928,2.384 2.384,2.384c1.504,0 2.48,-0.96 2.48,-2.448c0,-1.392 -0.96,-2.32 -2.8,-2.32zM104.735,27h-1.536v-11.568h1.536l3.984,9.728l3.984,-9.728h1.568v11.568h-1.536v-4.576c0,-2.16 0.016,-2.944 0.096,-3.76l-3.376,8.336h-1.472l-3.36,-8.304c0.08,0.56 0.112,1.744 0.112,3.36zM127.077,21.208c0,3.52 -2.304,5.984 -5.584,5.984c-3.264,0 -5.536,-2.464 -5.536,-5.984c0,-3.504 2.288,-5.984 5.552,-5.984c3.28,0 5.568,2.464 5.568,5.984zM125.429,21.208c0,-2.688 -1.568,-4.464 -3.92,-4.464c-2.352,0 -3.904,1.776 -3.904,4.464c0,2.688 1.552,4.48 3.904,4.48c2.352,0 3.92,-1.808 3.92,-4.48zM130.33,27h-1.568v-11.568h1.568l5.92,8.944v-8.944h1.568v11.568h-1.568l-5.92,-8.944zM139.072,16.872v-1.44h8.528v1.44h-3.472v10.128h-1.568v-10.128zM150.425,27h-1.568v-11.568h1.568v4.976h5.728v-4.976h1.568v11.568h-1.568v-5.136h-5.728zM159.411,18.552c0,-1.984 1.6,-3.328 3.984,-3.328c2.208,0 3.632,1.232 3.76,3.232h-1.584c-0.08,-1.152 -0.896,-1.824 -2.192,-1.824c-1.456,0 -2.4,0.736 -2.4,1.872c0,0.928 0.528,1.488 1.616,1.744l1.904,0.448c1.888,0.432 2.848,1.456 2.848,3.088c0,2.08 -1.616,3.408 -4.08,3.408c-2.352,0 -3.92,-1.232 -4.016,-3.216h1.6c0.032,1.104 0.96,1.808 2.416,1.808c1.536,0 2.512,-0.72 2.512,-1.872c0,-0.912 -0.496,-1.488 -1.6,-1.744l-1.904,-0.432c-1.888,-0.432 -2.864,-1.52 -2.864,-3.184z" fill="#254D45"/>
</g>
<g id="CODE_2">
<rect x="215" y="6" width="137" height="30" rx="15" fill="#50A896"/>
<path id="HOLIDAY3" d="M247.097,27h-2.592v-11.84h2.592v4.672h4.576v-4.672h2.592v11.84h-2.592v-4.768h-4.576zM267.668,21.064c0,3.616 -2.384,6.128 -5.824,6.128c-3.424,0 -5.776,-2.496 -5.776,-6.112c0,-3.616 2.368,-6.128 5.792,-6.128c3.44,0 5.808,2.496 5.808,6.112zM264.932,21.064c0,-2.256 -1.152,-3.616 -3.056,-3.616c-1.92,0 -3.072,1.36 -3.072,3.616c0,2.272 1.152,3.632 3.072,3.632c1.904,0 3.056,-1.392 3.056,-3.632zM272.066,15.16v9.44h4.672v2.4h-7.264v-11.84zM280.957,15.16v11.84h-2.592v-11.84zM288.067,27h-4.64v-11.84h4.48c3.472,0 5.888,2.432 5.888,5.952c0,3.456 -2.352,5.888 -5.728,5.888zM287.651,17.56h-1.632v7.04h1.792c2.048,0 3.248,-1.296 3.248,-3.488c0,-2.24 -1.264,-3.552 -3.408,-3.552zM296.575,27h-2.704l4.224,-11.84h2.528l4.208,11.84h-2.752l-0.832,-2.496h-3.824zM299.023,19.8l-0.848,2.528h2.336l-0.848,-2.528c-0.128,-0.4 -0.272,-0.864 -0.32,-1.152c-0.048,0.272 -0.176,0.72 -0.32,1.152zM307.855,22.504l-4,-7.344h2.896l1.984,3.84c0.192,0.368 0.32,0.656 0.448,0.96c0.144,-0.288 0.272,-0.592 0.464,-0.976l1.984,-3.824h2.816l-4,7.344v4.496h-2.592zM318.794,21.432h-1.728v-1.664c0.032,-0.032 0.064,-0.048 0.096,-0.08l2.576,-2.256h-4.464v-2.272h7.712v2.064l-2.496,2.192c1.6,0.48 2.896,1.76 2.896,3.776c0,2.496 -2.016,4.016 -4.416,4.016c-2.304,0 -4.24,-1.408 -4.24,-4.08h2.56c0,1.168 0.704,1.792 1.744,1.792c1.008,0 1.696,-0.688 1.696,-1.744c0,-0.944 -0.544,-1.744 -1.936,-1.744z" fill="white"/>
</g>
</g></svg>