<svg viewBox="0 0 358 42" fill="none" xmlns="http://www.w3.org/2000/svg" x="0" y="0"><g id="1 MONTH">
<rect y="0" width="358" height="42" rx="21" fill="#50A896" fill-opacity="0.2" x="0"/>
<g id="Frame 1">
<path id="$100 OFF" d="M16.2918,28.488v-1.296c-2.336,-0.192 -3.808,-1.568 -3.808,-3.632h2.576c0,0.768 0.432,1.232 1.232,1.376v-2.768l-0.432,-0.08c-2.144,-0.432 -3.2,-1.6 -3.2,-3.488c0,-1.936 1.472,-3.36 3.632,-3.616v-1.328h1.472v1.328c2.096,0.256 3.392,1.584 3.392,3.6h-2.496c0,-0.656 -0.32,-1.104 -0.896,-1.312v2.832l0.464,0.096c2.176,0.448 3.12,1.424 3.12,3.232c0,2.016 -1.392,3.408 -3.584,3.712v1.344zM15.1878,18.504c0,0.688 0.32,1.088 1.104,1.296v-2.56c-0.704,0.16 -1.104,0.608 -1.104,1.264zM18.8358,23.688c0,-0.688 -0.368,-1.072 -1.072,-1.216v2.4c0.672,-0.192 1.072,-0.608 1.072,-1.184zM24.4258,17.48h-2.688v-2.32h5.168v11.84h-2.48zM28.1141,21.112c0,-3.664 2.08,-6.176 5.168,-6.176c3.088,0 5.168,2.512 5.168,6.176c0,3.664 -1.92,6.096 -5.168,6.096c-3.248,0 -5.168,-2.432 -5.168,-6.096zM30.6741,21.112c0,2.544 0.96,3.824 2.608,3.824c1.648,0 2.608,-1.28 2.608,-3.824c0,-2.624 -0.96,-3.904 -2.608,-3.904c-1.648,0 -2.608,1.28 -2.608,3.904zM38.9585,21.112c0,-3.664 2.08,-6.176 5.168,-6.176c3.088,0 5.168,2.512 5.168,6.176c0,3.664 -1.92,6.096 -5.168,6.096c-3.248,0 -5.168,-2.432 -5.168,-6.096zM41.5185,21.112c0,2.544 0.96,3.824 2.608,3.824c1.648,0 2.608,-1.28 2.608,-3.824c0,-2.624 -0.96,-3.904 -2.608,-3.904c-1.648,0 -2.608,1.28 -2.608,3.904zM64.9973,21.064c0,3.616 -2.384,6.128 -5.824,6.128c-3.424,0 -5.776,-2.496 -5.776,-6.112c0,-3.616 2.368,-6.128 5.792,-6.128c3.44,0 5.808,2.496 5.808,6.112zM62.2613,21.064c0,-2.256 -1.152,-3.616 -3.056,-3.616c-1.92,0 -3.072,1.36 -3.072,3.616c0,2.272 1.152,3.632 3.072,3.632c1.904,0 3.056,-1.392 3.056,-3.632zM72.9153,22.376h-4.16v4.624h-2.592v-11.84h7.536v2.4h-4.944v2.48h4.16zM81.5878,22.376h-4.16v4.624h-2.592v-11.84h7.536v2.4h-4.944v2.48h4.16z" fill="#254D45"/>
<path id="1 MONTH_2" d="M94.1082,16.84h-2.432v-1.408h3.936v11.568h-1.504zM103.559,27h-1.536v-11.568h1.536l3.984,9.728l3.984,-9.728h1.568v11.568h-1.536v-4.576c0,-2.16 0.016,-2.944 0.096,-3.76l-3.376,8.336h-1.472l-3.36,-8.304c0.08,0.56 0.112,1.744 0.112,3.36zM125.901,21.208c0,3.52 -2.304,5.984 -5.584,5.984c-3.264,0 -5.536,-2.464 -5.536,-5.984c0,-3.504 2.288,-5.984 5.552,-5.984c3.28,0 5.568,2.464 5.568,5.984zM124.253,21.208c0,-2.688 -1.568,-4.464 -3.92,-4.464c-2.352,0 -3.904,1.776 -3.904,4.464c0,2.688 1.552,4.48 3.904,4.48c2.352,0 3.92,-1.808 3.92,-4.48zM129.155,27h-1.568v-11.568h1.568l5.92,8.944v-8.944h1.568v11.568h-1.568l-5.92,-8.944zM137.897,16.872v-1.44h8.528v1.44h-3.472v10.128h-1.568v-10.128zM149.249,27h-1.568v-11.568h1.568v4.976h5.728v-4.976h1.568v11.568h-1.568v-5.136h-5.728z" fill="#254D45"/>
</g>
<g id="CODE">
<rect x="217" y="6" width="135" height="30" rx="15" fill="#50A896"/>
<path id="HOLIDAY1" d="M249.168,27h-2.592v-11.84h2.592v4.672h4.576v-4.672h2.592v11.84h-2.592v-4.768h-4.576zM269.739,21.064c0,3.616 -2.384,6.128 -5.824,6.128c-3.424,0 -5.776,-2.496 -5.776,-6.112c0,-3.616 2.368,-6.128 5.792,-6.128c3.44,0 5.808,2.496 5.808,6.112zM267.003,21.064c0,-2.256 -1.152,-3.616 -3.056,-3.616c-1.92,0 -3.072,1.36 -3.072,3.616c0,2.272 1.152,3.632 3.072,3.632c1.904,0 3.056,-1.392 3.056,-3.632zM274.137,15.16v9.44h4.672v2.4h-7.264v-11.84zM283.027,15.16v11.84h-2.592v-11.84zM290.138,27h-4.64v-11.84h4.48c3.472,0 5.888,2.432 5.888,5.952c0,3.456 -2.352,5.888 -5.728,5.888zM289.722,17.56h-1.632v7.04h1.792c2.048,0 3.248,-1.296 3.248,-3.488c0,-2.24 -1.264,-3.552 -3.408,-3.552zM298.645,27h-2.704l4.224,-11.84h2.528l4.208,11.84h-2.752l-0.832,-2.496h-3.824zM301.093,19.8l-0.848,2.528h2.336l-0.848,-2.528c-0.128,-0.4 -0.272,-0.864 -0.32,-1.152c-0.048,0.272 -0.176,0.72 -0.32,1.152zM309.926,22.504l-4,-7.344h2.896l1.984,3.84c0.192,0.368 0.32,0.656 0.448,0.96c0.144,-0.288 0.272,-0.592 0.464,-0.976l1.984,-3.824h2.816l-4,7.344v4.496h-2.592zM319.904,17.48h-2.688v-2.32h5.168v11.84h-2.48z" fill="white"/>
</g>
</g></svg>