<svg width="18" height="18" viewBox="0 0 18 18" fill="none" xmlns="http://www.w3.org/2000/svg">
<path fill-rule="evenodd" clip-rule="evenodd" d="M13 0H4.99999C2.23858 0 0 2.23858 0 4.99999V12.9999C0 15.7613 2.23858 17.9999 4.99999 17.9999H13C15.7614 17.9999 18 15.7613 18 12.9999V4.99999C18 2.23858 15.7614 0 13 0ZM16.25 12.9999C16.2445 14.7925 14.7926 16.2444 13 16.2499H4.99999C3.20734 16.2444 1.75549 14.7925 1.75 12.9999V4.99999C1.75549 3.20734 3.20734 1.75549 4.99999 1.75H13C14.7926 1.75549 16.2445 3.20734 16.25 4.99999V12.9999ZM13.75 5.24999C14.3023 5.24999 14.75 4.80227 14.75 4.24999C14.75 3.69771 14.3023 3.24999 13.75 3.24999C13.1977 3.24999 12.75 3.69771 12.75 4.24999C12.75 4.80227 13.1977 5.24999 13.75 5.24999ZM8.99998 4.49999C6.51471 4.49999 4.49999 6.51476 4.49999 8.99995C4.49999 11.4853 6.51471 13.4999 8.99998 13.4999C11.4853 13.4999 13.5 11.4853 13.5 8.99995C13.5027 7.80566 13.0294 6.65956 12.1849 5.81507C11.3404 4.97058 10.1943 4.49733 8.99998 4.49999ZM6.24999 8.99995C6.24999 10.5188 7.48119 11.7499 8.99998 11.7499C10.5188 11.7499 11.75 10.5188 11.75 8.99995C11.75 7.48116 10.5188 6.24996 8.99998 6.24996C7.48119 6.24996 6.24999 7.48116 6.24999 8.99995Z" fill="white"/>
</svg>
