<svg width="24" height="24" viewBox="0 0 24 24" fill="none" xmlns="http://www.w3.org/2000/svg">
<path fill-rule="evenodd" clip-rule="evenodd" d="M10.0518 4.12988H13.9482C15.6892 4.12987 17.0683 4.12986 18.1475 4.27496C19.2582 4.42429 20.1572 4.73893 20.8662 5.4479C21.5751 6.15689 21.8898 7.05589 22.0391 8.16659C22.1842 9.24586 22.1842 10.6249 22.1842 12.3659V12.4728C22.1842 14.2139 22.1842 15.5929 22.0391 16.6721C21.8898 17.7828 21.5751 18.6818 20.8662 19.3908C20.1572 20.0998 19.2582 20.4145 18.1475 20.5638C17.0683 20.7089 15.6892 20.7088 13.9482 20.7088H10.0518C8.31079 20.7088 6.93176 20.7089 5.85251 20.5638C4.7418 20.4145 3.8428 20.0998 3.13381 19.3908C2.42484 18.6818 2.1102 17.7828 1.96087 16.6721C1.81577 15.5929 1.81578 14.2139 1.8158 12.4728V12.3659C1.81578 10.6249 1.81577 9.24585 1.96087 8.16659C2.1102 7.05589 2.42484 6.15689 3.13381 5.4479C3.8428 4.73893 4.7418 4.42429 5.85251 4.27496C6.93176 4.12986 8.31079 4.12987 10.0518 4.12988ZM6.04187 5.68334C5.08873 5.81149 4.53959 6.0518 4.13865 6.45274C3.73772 6.85368 3.4974 7.40281 3.36925 8.35595C3.23836 9.32953 3.23685 10.6129 3.23685 12.4194C3.23685 14.2258 3.23836 15.5091 3.36925 16.4828C3.4974 17.4359 3.73772 17.985 4.13865 18.386C4.53959 18.7869 5.08873 19.0273 6.04187 19.1554C7.01543 19.2862 8.2988 19.2877 10.1053 19.2877H13.8947C15.7012 19.2877 16.9846 19.2862 17.9582 19.1554C18.9112 19.0273 19.4605 18.7869 19.8614 18.386C20.2623 17.985 20.5026 17.4359 20.6308 16.4828C20.7616 15.5091 20.7632 14.2258 20.7632 12.4194C20.7632 10.6129 20.7616 9.32953 20.6308 8.35595C20.5026 7.40281 20.2623 6.85368 19.8614 6.45274C19.4605 6.0518 18.9112 5.81149 17.9582 5.68334C16.9846 5.55245 15.7012 5.55094 13.8947 5.55094H10.1053C8.29882 5.55094 7.01545 5.55245 6.04187 5.68334ZM5.76996 8.17502C6.02118 7.87355 6.46921 7.83283 6.77066 8.08405L8.81594 9.78844C9.6998 10.525 10.3134 11.0347 10.8315 11.3679C11.333 11.6904 11.6731 11.7987 12 11.7987C12.3269 11.7987 12.667 11.6904 13.1685 11.3679C13.6866 11.0347 14.3002 10.525 15.184 9.78844L17.2294 8.08405C17.5309 7.83283 17.9788 7.87355 18.23 8.17502C18.4813 8.47647 18.4406 8.92451 18.1391 9.17573L16.0582 10.9098C15.2185 11.6096 14.5379 12.1768 13.9372 12.5631C13.3114 12.9655 12.7021 13.2198 12 13.2198C11.2979 13.2198 10.6885 12.9655 10.0628 12.5631C9.46212 12.1768 8.78153 11.6096 7.94182 10.9098L5.86093 9.17573C5.55947 8.92451 5.51874 8.47647 5.76996 8.17502Z" fill="white"/>
</svg>
