<svg width="1440" height="700" viewBox="0 0 1440 700" fill="none" xmlns="http://www.w3.org/2000/svg">
<g clip-path="url(#clip0_1_536)">
<g clip-path="url(#clip1_1_536)">
<path d="M0 82V550.965C0 633.232 66.3705 699.603 148.638 699.603C230.906 699.603 297.276 633.232 297.276 550.965V82H0Z" fill="#EFD5C7"/>
<path d="M618.276 379.716V231.078C618.276 148.811 551.906 82.4404 469.638 82.4404C387.371 82.4404 321 148.811 321 231.078V379.716H618.276Z" fill="#EFD5C7"/>
<path d="M469.363 699.603C551.454 699.603 618.001 633.056 618.001 550.965C618.001 468.875 551.454 402.327 469.363 402.327C387.273 402.327 320.725 468.875 320.725 550.965C320.725 633.056 387.273 699.603 469.363 699.603Z" fill="#EFD5C7"/>
</g>
</g>
<defs>
<clipPath id="clip0_1_536">
<rect width="1440" height="700" fill="white"/>
</clipPath>
<clipPath id="clip1_1_536">
<rect width="618" height="618" fill="white" transform="translate(0 82)"/>
</clipPath>
</defs>
</svg>
