<svg width="19" height="19" viewBox="0 0 19 19" fill="none" xmlns="http://www.w3.org/2000/svg">
<path d="M16.7379 0H2.26188C1.01468 0 0 1.01468 0 2.26188V16.7379C0 17.9851 1.01468 18.9998 2.26188 18.9998H16.7379C17.9851 18.9998 18.9998 17.9851 18.9998 16.7379V2.26188C18.9998 1.01468 17.9851 0 16.7379 0ZM14.9311 8.28883C14.8284 8.29833 14.7243 8.30473 14.6189 8.30473C13.4323 8.30473 12.3896 7.69444 11.783 6.77205C11.783 9.19182 11.783 11.945 11.783 11.9911C11.783 14.1214 10.0559 15.8485 7.9256 15.8485C5.79538 15.8485 4.06821 14.1214 4.06821 11.9911C4.06821 9.86091 5.79538 8.13374 7.9256 8.13374C8.0061 8.13374 8.0849 8.14094 8.16399 8.14593V10.0468C8.0849 10.0373 8.007 10.0228 7.9256 10.0228C6.8381 10.0228 5.95687 10.9041 5.95687 11.9916C5.95687 13.0791 6.8381 13.9603 7.9256 13.9603C9.01308 13.9603 9.97347 13.1035 9.97347 12.016C9.97347 11.973 9.99247 3.15215 9.99247 3.15215H11.8092C11.9802 4.77664 13.2917 6.05866 14.9311 6.17628V8.28883Z" fill="white"/>
</svg>
