<svg width="160" height="33" viewBox="0 0 160 33" fill="none" xmlns="http://www.w3.org/2000/svg">
<path d="M29.0724 0.432373H0.455093V28.099H29.0724V0.432373Z" fill="#523A2D"/>
<path d="M24.4619 12.0927H17.0563L14.7688 5.04443L12.4742 12.0927L5.06845 12.0856L11.0659 16.446L8.77134 23.4872L14.7688 19.1339L20.7591 23.4872L18.4716 16.446L24.4619 12.0927Z" fill="#FFEDE3"/>
<path d="M18.9855 18.0401L18.4708 16.446L14.768 19.1338L18.9855 18.0401Z" fill="#523A2D"/>
<path d="M61.6901 0.432373H33.0728V28.099H61.6901V0.432373Z" fill="#523A2D"/>
<path d="M57.0797 12.0927H49.6739L47.3865 5.04443L45.0918 12.0927L37.6862 12.0856L43.6836 16.446L41.389 23.4872L47.3865 19.1339L53.3768 23.4872L51.0893 16.446L57.0797 12.0927Z" fill="#FFEDE3"/>
<path d="M51.6033 18.0396L51.0886 16.4456L47.3857 19.1334L51.6033 18.0396Z" fill="#523A2D"/>
<path d="M94.3044 0.432373H65.6871V28.099H94.3044V0.432373Z" fill="#523A2D"/>
<path d="M89.6937 12.0927H82.2883L80.0008 5.04443L77.7062 12.0927L70.3004 12.0856L76.2979 16.446L74.0033 23.4872L80.0008 19.1339L85.9911 23.4872L83.7036 16.446L89.6937 12.0927Z" fill="#FFEDE3"/>
<path d="M84.2175 18.0401L83.7028 16.446L80 19.1338L84.2175 18.0401Z" fill="#523A2D"/>
<path d="M126.922 0.432373H98.3049V28.099H126.922V0.432373Z" fill="#523A2D"/>
<path d="M122.312 12.0927H114.906L112.618 5.04443L110.323 12.0927L102.918 12.0856L108.916 16.446L106.621 23.4872L112.618 19.1339L118.609 23.4872L116.321 16.446L122.312 12.0927Z" fill="#FFEDE3"/>
<path d="M116.835 18.0396L116.32 16.4456L112.618 19.1334L116.835 18.0396Z" fill="#523A2D"/>
<path d="M159.537 0.432373H130.92V28.099H159.537V0.432373Z" fill="#523A2D"/>
<path d="M154.926 12.0927H147.52L145.233 5.04443L142.938 12.0927L135.532 12.0856L141.53 16.446L139.235 23.4872L145.233 19.1339L151.223 23.4872L148.936 16.446L154.926 12.0927Z" fill="#FFEDE3"/>
<path d="M149.449 18.0396L148.935 16.4456L145.232 19.1334L149.449 18.0396Z" fill="#523A2D"/>
</svg>
