<svg width="131" height="131" viewBox="0 0 131 131" fill="none" xmlns="http://www.w3.org/2000/svg">
<g opacity="0.7">
<path d="M0 130.999H99.4721C116.922 130.999 131 116.922 131 99.4721C131 82.0224 116.922 67.9442 99.4721 67.9442H0V130.999Z" fill="#639D92"/>
<path d="M99.471 63.0553C116.883 63.0553 130.999 48.9399 130.999 31.5277C130.999 14.1154 116.883 0 99.471 0C82.0597 0 67.9441 14.1154 67.9441 31.5277C67.9441 48.9399 82.0597 63.0553 99.471 63.0553Z" fill="#E9FF86"/>
<path d="M0 31.5277C0 48.9774 14.1621 63.0553 31.5272 63.0553V0C14.0778 0 0 14.0779 0 31.5277Z" fill="#639D92"/>
<path d="M33.9732 31.5277C33.9732 48.9774 48.1353 63.0553 65.5001 63.0553V0C48.0503 0 33.9732 14.0779 33.9732 31.5277Z" fill="#639D92"/>
</g>
</svg>
