<svg width="12" height="12" viewBox="0 0 12 12" fill="none" xmlns="http://www.w3.org/2000/svg">
<mask id="mask0_1_611" style="mask-type:luminance" maskUnits="userSpaceOnUse" x="-10" y="-10" width="32" height="32">
<path d="M21.9164 -9.91666H-9.91638V21.9161H21.9164V-9.91666Z" fill="white"/>
</mask>
<g mask="url(#mask0_1_611)">
<path d="M2.63124 4.38162C3.83869 4.49153 4.90653 3.60188 5.01644 2.39443C5.12635 1.18698 4.2367 0.119141 3.02925 0.00922911C1.8218 -0.100683 0.753961 0.788968 0.644049 1.99642C0.534137 3.20387 1.42379 4.27171 2.63124 4.38162Z" fill="#B9C7B5"/>
<path d="M9.60562 5.01631C10.8131 5.12622 11.8809 4.23657 11.9908 3.02912C12.1007 1.82167 11.2111 0.753828 10.0036 0.643916C8.79618 0.534004 7.72834 1.42366 7.61843 2.63111C7.50852 3.83856 8.39817 4.90639 9.60562 5.01631Z" fill="#B9C7B5"/>
<path d="M1.99637 11.3559C3.20383 11.4658 4.27166 10.5762 4.38157 9.36873C4.49149 8.16128 3.60184 7.09344 2.39438 6.98353C1.18693 6.87362 0.119096 7.76327 0.00918401 8.97072C-0.100728 10.1782 0.788923 11.246 1.99637 11.3559Z" fill="#B9C7B5"/>
<path d="M8.97074 11.9906C10.1782 12.1005 11.246 11.2109 11.3559 10.0034C11.4659 8.79597 10.5762 7.72813 9.36875 7.61822C8.1613 7.5083 7.09346 8.39796 6.98355 9.60541C6.87364 10.8129 7.76329 11.8807 8.97074 11.9906Z" fill="#B9C7B5"/>
</g>
</svg>
